<svg width="15" height="19" viewBox="0 0 15 19" fill="none" xmlns="http://www.w3.org/2000/svg">
<path d="M11.2109 1.14062V1.10156C10.3125 1.33594 9.49219 1.76562 8.75 2.27344C8.55469 2.39062 8.39844 2.50781 8.24219 2.66406C6.64062 4.03125 5.58594 6.10156 5.58594 8.40625C5.58594 12.0391 8.20312 15.0859 11.6406 15.75C12.1094 15.8281 12.5781 15.9062 13.0859 15.9062C13.75 15.9062 14.375 15.7891 14.9609 15.6328C14.4141 16.2188 13.7891 16.7266 13.0859 17.1172C12.6953 17.3516 12.2656 17.5469 11.875 17.7031C10.8984 18.0547 9.84375 18.25 8.75 18.25C3.90625 18.25 0 14.3438 0 9.5C0 5.08594 3.24219 1.45312 7.5 0.867188C7.92969 0.789062 8.32031 0.75 8.75 0.75C9.60938 0.75 10.4297 0.90625 11.2109 1.14062ZM4.92188 3.79688C3.08594 5.04688 1.875 7.11719 1.875 9.5C1.875 13.1328 4.60938 16.0625 8.16406 16.375C5.50781 14.7344 3.71094 11.7656 3.71094 8.40625C3.71094 6.72656 4.14062 5.16406 4.92188 3.79688Z" fill="#898989"/>
</svg>
