<svg width="20" height="21" viewBox="0 0 20 21" fill="none" xmlns="http://www.w3.org/2000/svg">
<path d="M10.9375 1.4375V3.9375V4.875H9.0625V3.9375V1.4375V0.5H10.9375V1.4375ZM17.0703 4.75781L15.2734 6.55469L14.6094 7.21875L13.2812 5.89062L13.9453 5.22656L15.7422 3.42969L16.4062 2.76562L17.7344 4.09375L17.0703 4.75781ZM4.21875 3.42969L6.01562 5.22656L6.67969 5.89062L5.35156 7.21875L4.6875 6.55469L2.92969 4.75781L2.26562 4.09375L3.59375 2.76562L4.25781 3.42969H4.21875ZM0.9375 9.5625H3.4375H4.375V11.4375H3.4375H0.9375H0V9.5625H0.9375ZM16.5625 9.5625H19.0625H20V11.4375H19.0625H16.5625H15.625V9.5625H16.5625ZM6.01562 15.8125L4.21875 17.5703L3.59375 18.2344L2.26562 16.9062L2.92969 16.2422L4.6875 14.4844L5.35156 13.8203L6.67969 15.1484L6.01562 15.8125ZM15.2734 14.4844L17.0703 16.2812L17.7344 16.9453L16.4062 18.2344L15.7422 17.5703L13.9453 15.8125L13.2812 15.1484L14.6094 13.8203L15.2734 14.4844ZM10.9375 17.0625V19.5625V20.5H9.0625V19.5625V17.0625V16.125H10.9375V17.0625ZM12.5 10.5C12.5 9.64062 11.9922 8.82031 11.25 8.35156C10.4688 7.92188 9.49219 7.92188 8.75 8.35156C7.96875 8.82031 7.5 9.64062 7.5 10.5C7.5 11.3984 7.96875 12.2188 8.75 12.6875C9.49219 13.1172 10.4688 13.1172 11.25 12.6875C11.9922 12.2188 12.5 11.3984 12.5 10.5ZM5.625 10.5C5.625 8.9375 6.44531 7.53125 7.8125 6.75C9.14062 5.92969 10.8203 5.92969 12.1875 6.75C13.5156 7.53125 14.375 8.9375 14.375 10.5C14.375 12.1016 13.5156 13.5078 12.1875 14.2891C10.8203 15.1094 9.14062 15.1094 7.8125 14.2891C6.44531 13.5078 5.625 12.1016 5.625 10.5Z" fill="#7D7D7D"/>
</svg>
